<?xml version="1.0" encoding="UTF-8"?><svg id="Layer_2" xmlns="http://www.w3.org/2000/svg" viewBox="0 0 594.89 194.83"><defs><style>.cls-1{fill:#fff;stroke-width:0px;}</style></defs><g id="Layer_1-2"><path class="cls-1" d="M203.08,85.98v13.28h23.27v9.34h-23.27v18.31h-11.63v-50.27h37.99v9.33h-26.35Z"/><path class="cls-1" d="M235.82,101.78c0-14.94,11.63-25.99,27.5-25.99s27.5,10.99,27.5,25.99-11.7,25.99-27.5,25.99-27.5-11.06-27.5-25.99ZM279.05,101.78c0-9.55-6.75-16.08-15.73-16.08s-15.73,6.53-15.73,16.08,6.75,16.08,15.73,16.08,15.73-6.53,15.73-16.08Z"/><path class="cls-1" d="M301.74,76.65h11.63v40.79h25.2v9.48h-36.84v-50.27Z"/><path class="cls-1" d="M347.27,76.65h11.63v40.79h25.2v9.48h-36.84v-50.27Z"/><path class="cls-1" d="M388.77,101.78c0-14.94,11.63-25.99,27.5-25.99s27.5,10.99,27.5,25.99-11.7,25.99-27.5,25.99-27.5-11.06-27.5-25.99ZM432,101.78c0-9.55-6.75-16.08-15.73-16.08s-15.73,6.53-15.73,16.08,6.75,16.08,15.73,16.08,15.73-6.53,15.73-16.08Z"/><path class="cls-1" d="M529.01,76.65l-16.44,50.27h-12.49l-11.06-34.04-11.42,34.04h-12.42l-16.52-50.27h12.06l11.35,35.33,11.85-35.33h10.77l11.49,35.62,11.71-35.62h11.13Z"/><path class="cls-1" d="M138.63,150.75h-16.08v-9.48h43.8v9.48h-16.08v40.79h-11.63v-40.79Z"/><path class="cls-1" d="M220.85,141.27v50.27h-11.63v-20.61h-22.83v20.61h-11.63v-50.27h11.63v19.82h22.83v-19.82h11.63Z"/><path class="cls-1" d="M273.85,182.2v9.33h-38.92v-50.27h37.99v9.33h-26.43v10.92h23.34v9.05h-23.34v11.63h27.36Z"/><path class="cls-1" d="M353.48,191.54l-.07-30.16-14.79,24.85h-5.24l-14.72-24.2v29.51h-10.92v-50.27h9.62l18.81,31.24,18.53-31.24h9.55l.14,50.27h-10.91Z"/><path class="cls-1" d="M375.3,166.41c0-14.94,11.63-25.99,27.5-25.99s27.5,10.99,27.5,25.99-11.7,25.99-27.5,25.99-27.5-11.06-27.5-25.99ZM418.53,166.41c0-9.55-6.75-16.08-15.73-16.08s-15.73,6.53-15.73,16.08,6.75,16.08,15.73,16.08,15.73-6.53,15.73-16.08Z"/><path class="cls-1" d="M487.32,141.27v50.27h-9.55l-25.06-30.52v30.52h-11.49v-50.27h9.62l24.99,30.52v-30.52h11.49Z"/><path class="cls-1" d="M540.32,182.2v9.33h-38.92v-50.27h37.99v9.33h-26.43v10.92h23.34v9.05h-23.34v11.63h27.36Z"/><path class="cls-1" d="M575.36,173.73v17.81h-11.63v-17.95l-19.46-32.31h12.35l13.43,22.33,13.43-22.33h11.42l-19.53,32.46Z"/><path class="cls-1" d="M145.79,29.1l-7.49,2.14c-12.33,3.53-23.94,9.04-34.49,16.36-12.91,8.96-20.2,20.43-24.55,27.29-.42.66-.81,1.28-1.19,1.86-2.16,3.35-7.35,11.55-10.24,17.55-.79-.25-1.47-.52-2.14-.79-1.17-.47-2.28-.92-3.8-1.19,1.83-5.45,4.34-13.09,6.51-20.48,3.08-10.45,4.96-20.71,5.87-25.64.16-.88.29-1.6.39-2.11,2.48-12.74,3.51-24.05,3.15-34.57l-.27-7.7-.06-1.82-1.52.99-6.67,4.34c-4.68,2.92-9.39,6.75-14.8,12.04-4.59,4.51-8.77,9.37-12.43,14.45-4.43,6.11-15.12,21.91-18.8,36.61-2.99,11.96-4.38,26.83-5.21,35.71l-.02.16C6.4,113.92,0,127.8,0,143.45c0,4.16.14,4.73.94,7.88l.24.96c-.04.07-.08.14-.11.22,5.55,24.23,28.63,42.3,54.54,42.3,4.35,0,7.19.19,12.77-.74.02-.02.06-.06.08-.09l.76-.13c15.4-2.65,39.83-18.68,39.83-50.4,0-9.82-2.6-19.18-7.54-27.14,5.08-7.26,25.73-36.85,30.17-45.09,6.04-11.07,10.56-22.31,13.44-33.42l1.93-7.45.45-1.74-1.73.49ZM28.05,168.02c-1.27,3.15-3.71,5.14-5.47,4.43-1.75-.7-2.14-3.83-.87-6.98,1.27-3.16,3.72-5.14,5.47-4.43,1.75.7,2.14,3.83.87,6.98ZM42.57,186.9c-1.57.22-6.35.69-6.35.69,0,0-2.68-3.1-3.94-5.03-.94-1.43,3.5-1.89,6.35-.69,2.84,1.19,5.64,4.79,3.94,5.02ZM60.66,184.12c-1.26,3.15-3.71,5.14-5.47,4.43-1.75-.7-2.14-3.83-.87-6.98,1.27-3.16,3.72-5.14,5.47-4.43,1.75.7,2.14,3.83.87,6.98ZM144.14,37.54c-3.04,11.72-7.68,22.8-13.35,33.2-3.83,7.1-20.24,30.92-30.49,45.55,4.94,7.72,7.74,16.96,7.74,27.17,0,20.71-11.46,37.47-29.08,45.47.02-.15.03-.31.05-.47-2.78,1.42-6.05,2.8-9.94,4.38,3.07-5.18,4.82-11.11,4.82-17.41,0-8.51-3.19-16.33-8.52-22.56,7.03-9.3,14.16-18.46,21.02-27.81,6.91-9.3,13.53-18.78,19.85-28.4,6.23-9.68,12.16-19.52,17.24-29.72,3.76-7.7,7.23-15.54,9.83-23.58-2.95,1.09-5.86,2.27-8.71,3.56-5.34,2.44-10.47,5.31-15.31,8.61-4.83,3.3-9.46,6.91-13.69,10.98-4.25,4.05-8.08,8.53-11.64,13.23-3.54,4.72-6.69,9.77-9.44,15.04-2.82,5.24-5.25,10.73-7.31,16.37-4.24,11.27-6.99,23.14-8.98,35.23-5.44-3.84-11.98-6.45-19.12-7.36,8.27-20.84,15.89-41.97,21.51-63.56,2.8-10.79,5.08-21.69,6.49-32.64,1.04-8.18,1.6-16.4,1.37-24.51-2.56,1.92-5.09,3.88-7.5,5.99-4.44,3.83-8.56,8.03-12.3,12.56-7.49,9.05-13.36,19.49-17.26,30.73-3.93,11.23-5.93,23.19-6.3,35.23-.41,12.05.76,24.21,3.1,36.15.17-.02-14.14.5-22.12,9.03-.33.41-.66.82-1,1.25-.66.84-2.18,2.33-2.88,2.88-1.01-4.05-1.17-4.22-1.17-8.67,0-15.9,6.8-29.53,18-38.63.8-8.52,2.19-23.99,5.23-36.15,3.02-12.08,11.24-26.06,18.63-36.26,3.69-5.1,7.82-9.89,12.32-14.32,4.5-4.41,9.29-8.58,14.64-11.91l6.67-4.34.27,7.7c.41,11.69-.95,23.16-3.13,34.34-.67,3.42-2.63,15.4-6.24,27.66-2.18,7.4-4.69,15.07-6.89,21.62,3.37.32,4.73,1.53,7.85,2.36,2.69-5.8,7.96-14.22,10.55-18.22,4.3-6.67,11.51-19.18,25.46-28.86,10.44-7.25,22.07-12.75,34.19-16.22l7.49-2.14-1.93,7.45Z"/></g></svg>
