<?xml version="1.0" encoding="UTF-8"?><svg id="Layer_2" xmlns="http://www.w3.org/2000/svg" viewBox="0 0 967.43 335.76"><defs><style>.cls-1{fill:#fff;stroke-width:0px;}</style></defs><g id="Layer_1-2"><path class="cls-1" d="M32.95,250.45H0v-19.41h89.72v19.41h-32.94v83.54h-23.83v-83.54Z"/><path class="cls-1" d="M201.34,231.04v102.95h-23.83v-42.21h-46.77v42.21h-23.83v-102.95h23.83v40.59h46.77v-40.59h23.83Z"/><path class="cls-1" d="M309.88,314.87v19.12h-79.71v-102.95h77.8v19.12h-54.12v22.36h47.8v18.53h-47.8v23.83h56.04Z"/><path class="cls-1" d="M472.98,333.99l-.15-61.77-30.3,50.89h-10.74l-30.15-49.57v60.45h-22.36v-102.95h19.71l38.54,63.98,37.94-63.98h19.56l.29,102.95h-22.36Z"/><path class="cls-1" d="M517.69,282.51c0-30.59,23.83-53.24,56.33-53.24s56.33,22.5,56.33,53.24-23.97,53.24-56.33,53.24-56.33-22.65-56.33-53.24ZM606.23,282.51c0-19.56-13.83-32.94-32.21-32.94s-32.21,13.38-32.21,32.94,13.83,32.95,32.21,32.95,32.21-13.38,32.21-32.95Z"/><path class="cls-1" d="M747.12,231.04v102.95h-19.56l-51.33-62.51v62.51h-23.53v-102.95h19.71l51.18,62.51v-62.51h23.53Z"/><path class="cls-1" d="M855.66,314.87v19.12h-79.71v-102.95h77.8v19.12h-54.12v22.36h47.8v18.53h-47.8v23.83h56.04Z"/><path class="cls-1" d="M927.43,297.52v36.48h-23.83v-36.77l-39.86-66.19h25.3l27.5,45.74,27.5-45.74h23.39l-40.01,66.48Z"/><path class="cls-1" d="M159.99,122.58v27.21h47.65v19.12h-47.65v37.5h-23.83v-102.95h77.8v19.12h-53.98Z"/><path class="cls-1" d="M365.79,103.46h23.83v83.54h51.62v19.41h-75.45v-102.95Z"/><path class="cls-1" d="M459.03,103.46h23.83v83.54h51.62v19.41h-75.45v-102.95Z"/><path class="cls-1" d="M544.04,154.94c0-30.59,23.83-53.24,56.33-53.24s56.33,22.5,56.33,53.24-23.97,53.24-56.33,53.24-56.33-22.65-56.33-53.24ZM632.58,154.94c0-19.56-13.83-32.95-32.21-32.95s-32.21,13.38-32.21,32.95,13.83,32.95,32.21,32.95,32.21-13.38,32.21-32.95Z"/><path class="cls-1" d="M831.27,103.46l-33.68,102.95h-25.59l-22.65-69.71-23.38,69.71h-25.45l-33.83-102.95h24.71l23.24,72.36,24.27-72.36h22.06l23.53,72.95,23.97-72.95h22.8Z"/><path class="cls-1" d="M383.41,31.29l-8.05,2.3c-13.26,3.8-25.74,9.72-37.09,17.59-13.88,9.63-21.71,21.97-26.4,29.34-.45.71-.88,1.38-1.28,2-2.33,3.6-7.9,12.41-11.01,18.87-.85-.27-1.58-.56-2.3-.85-1.25-.5-2.45-.99-4.08-1.28,1.96-5.86,4.66-14.08,7-22.02,3.31-11.23,5.34-22.27,6.31-27.57.17-.95.32-1.72.42-2.27,2.67-13.69,3.77-25.85,3.38-37.17l-.29-8.28-.07-1.95-1.64,1.07-7.17,4.67c-5.04,3.14-10.1,7.26-15.91,12.94-4.93,4.85-9.43,10.08-13.37,15.54-4.76,6.57-16.26,23.55-20.21,39.36-3.21,12.86-4.71,28.85-5.6,38.4l-.02.17c-12.51,10.33-19.4,25.26-19.4,42.09,0,4.48.15,5.09,1.01,8.47l.26,1.04c-.04.08-.08.15-.12.23,5.97,26.05,30.78,45.48,58.64,45.48,4.68,0,7.73.2,13.73-.8.03-.03.06-.06.09-.09l.82-.14c16.55-2.85,42.82-20.09,42.82-54.18,0-10.55-2.8-20.63-8.1-29.18,5.47-7.81,27.66-39.62,32.43-48.48,6.49-11.9,11.35-23.99,14.45-35.94l2.08-8.01.48-1.87-1.86.53ZM256.83,180.64c-1.36,3.39-3.99,5.52-5.88,4.76-1.88-.76-2.31-4.12-.94-7.5,1.36-3.39,3.99-5.53,5.88-4.77,1.88.76,2.3,4.12.94,7.51ZM272.44,200.95c-1.69.23-6.82.74-6.82.74,0,0-2.88-3.33-4.24-5.4-1.01-1.54,3.77-2.03,6.82-.74,3.06,1.28,6.06,5.15,4.24,5.4ZM291.89,197.95c-1.36,3.39-3.99,5.52-5.88,4.76-1.88-.75-2.31-4.12-.94-7.51,1.36-3.39,3.99-5.52,5.88-4.77,1.88.76,2.3,4.12.94,7.51ZM381.64,40.36c-3.27,12.6-8.26,24.51-14.35,35.69-4.12,7.64-21.76,33.24-32.79,48.97,5.31,8.3,8.32,18.23,8.32,29.21,0,22.26-12.32,40.28-31.27,48.89.03-.17.04-.33.06-.5-2.99,1.52-6.51,3.02-10.69,4.71,3.3-5.57,5.18-11.95,5.18-18.72,0-9.15-3.43-17.56-9.16-24.25,7.55-9.99,15.22-19.85,22.59-29.9,7.43-10,14.55-20.19,21.34-30.54,6.7-10.4,13.07-20.99,18.54-31.95,4.04-8.28,7.77-16.71,10.56-25.35-3.17,1.17-6.3,2.44-9.37,3.83-5.74,2.62-11.26,5.71-16.46,9.25-5.19,3.55-10.17,7.43-14.72,11.81-4.57,4.35-8.68,9.17-12.52,14.22-3.81,5.08-7.19,10.5-10.15,16.17-3.03,5.64-5.64,11.53-7.86,17.6-4.55,12.11-7.51,24.87-9.65,37.88-5.85-4.13-12.88-6.93-20.56-7.91,8.89-22.41,17.09-45.13,23.12-68.34,3.01-11.6,5.46-23.32,6.98-35.09,1.12-8.79,1.72-17.64,1.47-26.35-2.75,2.07-5.47,4.18-8.07,6.44-4.77,4.12-9.21,8.63-13.22,13.5-8.05,9.73-14.36,20.96-18.56,33.04-4.22,12.08-6.37,24.93-6.77,37.88-.44,12.96.81,26.03,3.34,38.86.18-.02-15.2.54-23.79,9.7-.36.44-.71.88-1.08,1.35-.7.9-2.35,2.51-3.09,3.09-1.09-4.35-1.26-4.53-1.26-9.32,0-17.1,7.31-31.75,19.35-41.53.86-9.17,2.36-25.79,5.63-38.87,3.25-12.98,12.09-28.01,20.03-38.98,3.96-5.49,8.41-10.64,13.25-15.39,4.84-4.74,9.99-9.22,15.74-12.81l7.17-4.67.29,8.28c.44,12.57-1.02,24.9-3.36,36.92-.72,3.68-2.83,16.56-6.71,29.74-2.34,7.96-5.05,16.2-7.41,23.25,3.63.34,5.09,1.64,8.44,2.53,2.89-6.24,8.56-15.29,11.34-19.59,4.63-7.17,12.37-20.62,27.37-31.03,11.23-7.79,23.73-13.7,36.76-17.44l8.05-2.3-2.08,8.01Z"/></g></svg>