<?xml version="1.0" encoding="UTF-8"?><svg id="Layer_2" xmlns="http://www.w3.org/2000/svg" viewBox="0 0 593 191.48"><defs><style>.cls-1{fill:#000;stroke-width:0px;}</style></defs><g id="Layer_1-2"><path class="cls-1" d="M24.84,166.6c-1.27,3.16-3.72,5.15-5.48,4.44-1.76-.7-2.15-3.84-.88-7,1.27-3.16,3.73-5.15,5.48-4.45,1.75.71,2.15,3.84.87,7Z"/><path class="cls-1" d="M56.66,175.73c-1.76-.7-4.21,1.28-5.48,4.45-1.27,3.16-.88,6.3.88,7,1.76.71,4.21-1.28,5.48-4.44,1.27-3.16.88-6.3-.87-7Z"/><path class="cls-1" d="M29.08,181.19c1.26,1.93,3.95,5.04,3.95,5.04,0,0,4.79-.48,6.36-.69,1.7-.23-1.1-3.84-3.95-5.04-2.85-1.2-7.3-.74-6.36.69Z"/><path class="cls-1" d="M137.91,30.46c-12.15,3.48-23.81,8.99-34.28,16.26-13.99,9.71-21.21,22.26-25.53,28.94-2.59,4.02-7.89,12.45-10.58,18.27-3.13-.83-4.49-2.04-7.87-2.36,2.21-6.57,4.73-14.26,6.91-21.68,3.62-12.29,5.58-24.3,6.26-27.74,2.18-11.21,3.54-22.71,3.13-34.43l-.27-7.72-6.68,4.35c-5.36,3.34-10.17,7.53-14.68,11.94-4.51,4.43-8.66,9.24-12.35,14.35-7.41,10.23-15.66,24.24-18.68,36.35-3.05,12.19-4.45,27.7-5.25,36.24C6.81,112.36,0,126.02,0,141.97c0,4.47.16,4.63,1.17,8.69.7-.55,2.23-2.04,2.88-2.88.34-.43.67-.85,1-1.26,8-8.54,22.35-9.07,22.18-9.05-2.35-11.97-3.52-24.15-3.11-36.24.37-12.08,2.38-24.06,6.32-35.33,3.91-11.26,9.79-21.73,17.3-30.81,3.75-4.54,7.88-8.75,12.33-12.59,2.42-2.11,4.96-4.08,7.52-6.01.24,8.13-.32,16.37-1.37,24.57-1.41,10.98-3.71,21.91-6.51,32.72-5.63,21.64-13.27,42.83-21.56,63.73,7.16.91,13.72,3.52,19.17,7.38,2-12.12,4.76-24.03,9-35.32,2.07-5.66,4.5-11.16,7.33-16.41,2.76-5.29,5.92-10.35,9.47-15.08,3.57-4.71,7.41-9.2,11.67-13.26,4.24-4.08,8.88-7.7,13.72-11.01,4.85-3.3,9.99-6.18,15.35-8.63,2.86-1.3,5.78-2.48,8.73-3.57-2.6,8.06-6.08,15.92-9.85,23.64-5.1,10.22-11.04,20.09-17.29,29.79-6.33,9.65-12.97,19.15-19.9,28.48-6.87,9.37-14.03,18.56-21.07,27.88,5.34,6.24,8.54,14.09,8.54,22.62,0,6.32-1.75,12.26-4.83,17.46,3.9-1.58,7.18-2.97,9.97-4.39-.02.16-.03.31-.05.47,17.67-8.02,29.16-24.83,29.16-45.59,0-10.24-2.81-19.5-7.76-27.24,10.28-14.67,26.74-38.54,30.57-45.67,5.69-10.42,10.34-21.53,13.38-33.28l1.94-7.47-7.51,2.15ZM97.34,117.97c-.18.22-.37.44-.56.67.36-.51.72-1.03,1.1-1.57-.23.43-.41.74-.54.89Z"/><path class="cls-1" d="M201.19,83.7v13.28h23.27v9.33h-23.27v18.31h-11.63v-50.27h37.99v9.33h-26.35Z"/><path class="cls-1" d="M233.93,99.5c0-14.94,11.63-25.99,27.5-25.99s27.5,10.99,27.5,25.99-11.7,25.99-27.5,25.99-27.5-11.06-27.5-25.99ZM277.16,99.5c0-9.55-6.75-16.08-15.73-16.08s-15.73,6.53-15.73,16.08,6.75,16.08,15.73,16.08,15.73-6.53,15.73-16.08Z"/><path class="cls-1" d="M299.85,74.37h11.63v40.79h25.2v9.48h-36.84v-50.27Z"/><path class="cls-1" d="M345.37,74.37h11.63v40.79h25.2v9.48h-36.84v-50.27Z"/><path class="cls-1" d="M386.88,99.5c0-14.94,11.63-25.99,27.5-25.99s27.5,10.99,27.5,25.99-11.7,25.99-27.5,25.99-27.5-11.06-27.5-25.99ZM430.1,99.5c0-9.55-6.75-16.08-15.73-16.08s-15.73,6.53-15.73,16.08,6.75,16.08,15.73,16.08,15.73-6.53,15.73-16.08Z"/><path class="cls-1" d="M527.11,74.37l-16.44,50.27h-12.49l-11.06-34.04-11.42,34.04h-12.42l-16.52-50.27h12.06l11.35,35.33,11.85-35.33h10.77l11.49,35.62,11.71-35.62h11.13Z"/><path class="cls-1" d="M136.74,148.47h-16.08v-9.48h43.8v9.48h-16.08v40.79h-11.63v-40.79Z"/><path class="cls-1" d="M218.96,138.99v50.27h-11.63v-20.61h-22.83v20.61h-11.63v-50.27h11.63v19.82h22.83v-19.82h11.63Z"/><path class="cls-1" d="M271.95,179.93v9.33h-38.92v-50.27h37.99v9.33h-26.43v10.92h23.34v9.05h-23.34v11.63h27.36Z"/><path class="cls-1" d="M351.58,189.26l-.07-30.16-14.79,24.85h-5.24l-14.72-24.2v29.51h-10.92v-50.27h9.62l18.81,31.24,18.53-31.24h9.55l.14,50.27h-10.91Z"/><path class="cls-1" d="M373.41,164.13c0-14.94,11.63-25.99,27.5-25.99s27.5,10.99,27.5,25.99-11.7,25.99-27.5,25.99-27.5-11.06-27.5-25.99ZM416.64,164.13c0-9.55-6.75-16.08-15.73-16.08s-15.73,6.53-15.73,16.08,6.75,16.08,15.73,16.08,15.73-6.53,15.73-16.08Z"/><path class="cls-1" d="M485.43,138.99v50.27h-9.55l-25.06-30.52v30.52h-11.49v-50.27h9.62l24.99,30.52v-30.52h11.49Z"/><path class="cls-1" d="M538.42,179.93v9.33h-38.92v-50.27h37.99v9.33h-26.43v10.92h23.34v9.05h-23.34v11.63h27.36Z"/><path class="cls-1" d="M573.46,171.45v17.81h-11.63v-17.95l-19.46-32.31h12.35l13.43,22.33,13.43-22.33h11.42l-19.53,32.46Z"/></g></svg>