<?xml version="1.0" encoding="UTF-8"?><svg id="Layer_2" xmlns="http://www.w3.org/2000/svg" viewBox="0 0 967.43 332.15"><defs><style>.cls-1{fill:#000;stroke-width:0px;}</style></defs><g id="Layer_1-2"><path class="cls-1" d="M32.95,246.85H0v-19.41h89.72v19.41h-32.94v83.54h-23.83v-83.54Z"/><path class="cls-1" d="M201.34,227.43v102.95h-23.83v-42.21h-46.77v42.21h-23.83v-102.95h23.83v40.59h46.77v-40.59h23.83Z"/><path class="cls-1" d="M309.88,311.27v19.12h-79.71v-102.95h77.8v19.12h-54.12v22.36h47.8v18.53h-47.8v23.83h56.04Z"/><path class="cls-1" d="M472.98,330.39l-.15-61.77-30.3,50.89h-10.74l-30.15-49.57v60.45h-22.36v-102.95h19.71l38.54,63.98,37.94-63.98h19.56l.29,102.95h-22.36Z"/><path class="cls-1" d="M517.69,278.91c0-30.59,23.83-53.24,56.33-53.24s56.33,22.5,56.33,53.24-23.97,53.24-56.33,53.24-56.33-22.65-56.33-53.24ZM606.23,278.91c0-19.56-13.83-32.94-32.21-32.94s-32.21,13.38-32.21,32.94,13.83,32.95,32.21,32.95,32.21-13.38,32.21-32.95Z"/><path class="cls-1" d="M747.12,227.43v102.95h-19.56l-51.33-62.51v62.51h-23.53v-102.95h19.71l51.18,62.51v-62.51h23.53Z"/><path class="cls-1" d="M855.66,311.27v19.12h-79.71v-102.95h77.8v19.12h-54.12v22.36h47.8v18.53h-47.8v23.83h56.04Z"/><path class="cls-1" d="M927.43,293.91v36.48h-23.83v-36.77l-39.86-66.19h25.3l27.5,45.74,27.5-45.74h23.39l-40.01,66.48Z"/><path class="cls-1" d="M289.54,186.72c-1.87-.75-4.48,1.36-5.82,4.72-1.35,3.36-.93,6.69.93,7.44,1.87.75,4.47-1.36,5.82-4.72,1.35-3.36.93-6.69-.93-7.44Z"/><path class="cls-1" d="M260.23,192.51c1.34,2.05,4.2,5.35,4.2,5.35,0,0,5.09-.51,6.76-.74,1.81-.25-1.17-4.08-4.2-5.35-3.03-1.27-7.76-.79-6.76.73Z"/><path class="cls-1" d="M159.99,118.98v27.21h47.65v19.12h-47.65v37.5h-23.83v-102.95h77.8v19.12h-53.98Z"/><path class="cls-1" d="M365.79,99.85h23.83v83.54h51.62v19.41h-75.45v-102.95Z"/><path class="cls-1" d="M459.03,99.85h23.83v83.54h51.62v19.41h-75.45v-102.95Z"/><path class="cls-1" d="M544.04,151.33c0-30.59,23.83-53.24,56.33-53.24s56.33,22.5,56.33,53.24-23.97,53.24-56.33,53.24-56.33-22.65-56.33-53.24ZM632.58,151.33c0-19.56-13.83-32.95-32.21-32.95s-32.21,13.38-32.21,32.95,13.83,32.95,32.21,32.95,32.21-13.38,32.21-32.95Z"/><path class="cls-1" d="M831.27,99.85l-33.68,102.95h-25.59l-22.65-69.71-23.38,69.71h-25.45l-33.83-102.95h24.71l23.24,72.36,24.27-72.36h22.06l23.53,72.95,23.97-72.95h22.8Z"/><path class="cls-1" d="M255.73,177.01c-1.35,3.36-3.96,5.47-5.82,4.72-1.87-.75-2.28-4.08-.93-7.44,1.35-3.36,3.96-5.47,5.82-4.72,1.86.75,2.28,4.08.93,7.44Z"/><path class="cls-1" d="M373.47,32.36c-12.91,3.7-25.3,9.56-36.42,17.28-14.86,10.31-22.54,23.65-27.12,30.75-2.76,4.27-8.38,13.23-11.24,19.41-3.32-.88-4.77-2.17-8.37-2.51,2.34-6.98,5.02-15.15,7.34-23.03,3.85-13.06,5.93-25.82,6.65-29.47,2.32-11.91,3.76-24.13,3.33-36.58l-.29-8.2-7.1,4.62c-5.7,3.55-10.8,8-15.6,12.69-4.79,4.71-9.2,9.81-13.12,15.25-7.87,10.87-16.63,25.76-19.85,38.62-3.24,12.95-4.73,29.43-5.58,38.51-11.93,9.69-19.17,24.2-19.17,41.15,0,4.74.17,4.92,1.25,9.24.74-.58,2.37-2.17,3.07-3.07.36-.46.71-.9,1.07-1.33,8.5-9.08,23.74-9.64,23.57-9.62-2.5-12.72-3.74-25.66-3.31-38.5.4-12.83,2.53-25.57,6.71-37.53,4.16-11.97,10.41-23.09,18.38-32.73,3.98-4.83,8.38-9.29,13.1-13.38,2.57-2.24,5.27-4.33,7.99-6.38.25,8.63-.34,17.4-1.46,26.11-1.5,11.66-3.94,23.27-6.92,34.77-5.98,23-14.1,45.51-22.91,67.71,7.61.97,14.58,3.74,20.37,7.84,2.12-12.88,5.05-25.53,9.57-37.53,2.2-6.01,4.79-11.85,7.79-17.44,2.93-5.62,6.29-10.99,10.06-16.02,3.8-5.01,7.87-9.78,12.4-14.09,4.5-4.34,9.44-8.18,14.58-11.7,5.15-3.51,10.62-6.57,16.3-9.17,3.04-1.38,6.14-2.64,9.28-3.8-2.77,8.56-6.46,16.91-10.47,25.12-5.42,10.86-11.73,21.35-18.37,31.66-6.73,10.25-13.78,20.35-21.14,30.26-7.3,9.96-14.9,19.72-22.39,29.62,5.68,6.63,9.07,14.97,9.07,24.03,0,6.71-1.86,13.03-5.14,18.55,4.14-1.68,7.63-3.16,10.59-4.67-.02.17-.03.33-.06.5,18.77-8.53,30.98-26.38,30.98-48.44,0-10.88-2.99-20.72-8.25-28.94,10.92-15.58,28.41-40.95,32.48-48.52,6.04-11.07,10.99-22.88,14.22-35.36l2.06-7.94-7.98,2.28ZM330.36,125.34c-.19.23-.4.47-.6.72.38-.54.77-1.09,1.17-1.67-.24.46-.44.79-.58.95Z"/></g></svg>